<svg viewBox="0 0 512 512" fill="none" xmlns="http://www.w3.org/2000/svg">
  <path
    d="M129.83 510.189C99.381 508.805 82.8403 503.737 71.8386 499.446C57.2609 493.77 46.8678 487.014 35.9269 476.088C24.986 465.163 18.2145 454.77 12.5691 440.192C8.27795 429.19 3.21075 412.649 1.82602 382.201C0.304336 349.287 0 339.411 0 256.023C0 172.635 0.33477 162.774 1.8108 129.83C3.19553 99.381 8.29316 82.8708 12.5539 71.8386C18.2297 57.2609 25.0012 46.8678 35.9117 35.9117C46.8373 24.986 57.2304 18.1993 71.8233 12.5539C82.8251 8.26273 99.3658 3.19553 129.815 1.8108C162.744 0.304336 172.635 0 255.992 0C339.381 0 349.241 0.33477 382.185 1.8108C412.634 3.19553 429.145 8.29316 440.177 12.5539C454.754 18.1993 465.147 24.986 476.088 35.9117C487.029 46.8373 493.77 57.2456 499.446 71.8233C503.737 82.8251 508.805 99.3658 510.189 129.815C511.696 162.759 512 172.62 512 256.008C512 339.365 511.696 349.256 510.189 382.201C508.805 412.649 503.707 429.19 499.446 440.192C493.77 454.77 487.014 465.163 476.088 476.088C465.163 487.014 454.754 493.77 440.177 499.446C429.175 503.737 412.634 508.805 382.185 510.189C349.271 511.696 339.381 512 255.992 512C172.635 512 162.744 511.711 129.83 510.189Z"
    fill="#393232"
  />
  <path
    d="M156.022 381.083C140.527 381.083 125.726 377.863 111.616 371.423C97.6333 364.983 85.3505 356.031 74.7692 344.569C64.1865 333.106 55.7462 319.711 49.4483 304.386C43.149 289.059 40 272.444 40 254.541C40 236.896 43.149 220.346 49.4483 204.891C55.7462 189.435 64.1865 175.977 74.7692 164.513C85.3505 153.051 97.6333 144.099 111.616 137.66C125.726 131.22 140.527 128 156.022 128C169.375 128 181.847 130.318 193.436 134.955C205.152 139.463 215.419 145.581 224.237 153.308C233.181 160.907 240.739 169.73 246.912 179.775C253.21 189.822 257.745 200.254 260.516 211.072H221.78C219.765 204.762 216.867 198.58 213.088 192.527C209.309 186.344 204.648 181.064 199.105 176.685C193.563 172.177 187.2 168.57 180.02 165.865C172.839 163.032 164.84 161.615 156.022 161.615C145.943 161.615 136.119 163.934 126.544 168.57C117.096 173.078 108.655 179.517 101.223 187.89C93.9172 196.132 87.9955 205.922 83.4609 217.255C78.9262 228.589 76.6589 241.017 76.6589 254.541C76.6589 267.936 78.9262 280.301 83.4609 291.634C87.9955 302.968 93.9172 312.821 101.223 321.193C108.655 329.436 117.096 335.876 126.544 340.511C136.119 345.148 145.943 347.466 156.022 347.466C165.595 347.466 174.415 345.856 182.476 342.636C190.665 339.288 197.844 334.845 204.017 329.306C210.19 323.768 215.292 317.329 219.324 309.988C223.355 302.518 226.126 294.596 227.638 286.224H154.132V250.484H262.406V379.15H235.385L225.749 355.388C220.584 360.411 214.474 364.79 207.419 368.525C201.499 371.745 194.365 374.778 185.5 377.218C174.293 380.303 167.107 381.083 156.022 381.083Z"
    fill="#FDF6EE"
  />
  <path
    d="M355.195 347.448C365.289 347.448 375.066 345.195 384.527 340.685C394.116 336.177 402.569 329.994 409.886 322.138C417.33 314.152 423.324 304.748 427.865 293.928C432.406 283.108 434.677 271.257 434.677 258.376C434.677 245.495 432.406 233.645 427.865 222.824C423.324 212.004 417.33 202.665 409.886 194.808C402.569 186.822 394.116 180.575 384.527 176.066C375.066 171.558 365.289 169.303 355.195 169.303H318.293V347.448H355.195ZM281.579 383V133.752H355.195C370.713 133.752 385.474 136.972 399.479 143.413C413.608 149.853 425.973 158.742 436.57 170.076C447.168 181.412 455.621 194.614 461.929 209.686C468.237 224.757 471.391 240.986 471.391 258.376C471.391 275.765 468.237 291.995 461.929 307.066C455.621 322.138 447.168 335.34 436.57 346.676C425.973 358.012 413.608 366.898 399.479 373.339C385.474 379.78 370.713 383 355.195 383H281.579Z"
    fill="#FDF6EE"
  />
</svg>
