<svg xmlns="http://www.w3.org/2000/svg" xmlns:xlink="http://www.w3.org/1999/xlink"><defs><symbol id="attachment.inline--RD46m" viewBox="0 0 8 8"><path d="M2.527 7.556A2.083 2.083 0 011.054 4l.884-.884.59.589-.885.884a1.25 1.25 0 001.768 1.768l.884-.884.59.59L4 6.946a2.07 2.07 0 01-1.473.61zm.295-1.788l-.59-.59L5.18 2.232l.589.59-2.946 2.945zm3.24-.884l-.589-.59.884-.883A1.25 1.25 0 104.59 1.643l-.885.884-.589-.59L4 1.054A2.083 2.083 0 016.947 4l-.884.883z"/></symbol><symbol id="browse.inline--IWnP7" viewBox="0 0 20 20"><path d="M0 10C0 4.48 4.47 0 10 0c5.52 0 10 4.48 10 10 0 5.53-4.48 10-10 10-5.53 0-10-4.47-10-10zm12.23 1.83l1.62-5.12a.45.45 0 00-.56-.57l-5.12 1.6c-.21.07-.38.23-.44.44l-1.6 5.13c-.11.34.22.67.56.56l5.1-1.6c.21-.06.38-.23.44-.44z"/></symbol><symbol id="download.inline--lppqf" viewBox="0 0 24 24"><path opacity=".4" d="M17.554 7.296c2.451 0 4.446 2.06 4.446 4.592v5.032c0 2.525-1.99 4.58-4.436 4.58H6.448C3.996 21.5 2 19.441 2 16.91v-5.033c0-2.525 1.991-4.58 4.438-4.58h11.116z"/><path d="M12.546 16.037l2.91-2.967c.3-.307.3-.8-.003-1.107a.762.762 0 00-1.089.002l-1.593 1.626V3.282a.777.777 0 00-.77-.782.776.776 0 00-.77.782v10.309l-1.594-1.626a.762.762 0 00-1.089-.002.788.788 0 00-.002 1.107l2.91 2.967a.76.76 0 00.544.231.766.766 0 00.546-.23z"/></symbol><symbol id="location.inline--cNxtd" viewBox="0 0 18 20"><path d="M.5 8.318C.5 3.718 4.344 0 8.993 0 13.656 0 17.5 3.718 17.5 8.318c0 2.318-.843 4.47-2.23 6.294a22.064 22.064 0 01-5.541 5.14c-.486.318-.925.342-1.459 0a21.64 21.64 0 01-5.54-5.14C1.343 12.788.5 10.636.5 8.318zm5.694.259c0 1.54 1.258 2.753 2.8 2.753 1.542 0 2.812-1.212 2.812-2.753 0-1.53-1.27-2.8-2.813-2.8a2.813 2.813 0 00-2.799 2.8z"/></symbol><symbol id="mail.inline--B5F1R" viewBox="0 0 20 18"><path d="M14.94 0A5.057 5.057 0 0120 5.05v7.9c0 2.79-2.27 5.05-5.06 5.05H5.06A5.057 5.057 0 010 12.95v-7.9A5.05 5.05 0 015.06 0h9.88zm1.59 6.54l.08-.08a.773.773 0 00-.01-1 .84.84 0 00-.53-.26.76.76 0 00-.56.2L11 9a1.566 1.566 0 01-2 0L4.5 5.4a.76.76 0 00-1 .07c-.27.27-.3.7-.07 1l.13.13 4.55 3.55a3.143 3.143 0 003.91 0l4.51-3.61z"/></symbol><symbol id="phone.inline--w8QU6" viewBox="0 0 20 20"><path d="M9.532 10.472c3.989 3.988 4.894-.625 7.434 1.913 2.448 2.448 3.856 2.938.753 6.04-.388.312-2.857 4.07-11.534-4.605C-2.493 5.144 1.262 2.672 1.574 2.284c3.11-3.11 3.592-1.695 6.04.753 2.54 2.54-2.071 3.447 1.918 7.435z"/></symbol></defs><view id="view-attachment.inline--RD46m" viewBox="0 0 50 50"></view><view id="view-browse.inline--IWnP7" viewBox="50 0 50 50"></view><view id="view-download.inline--lppqf" viewBox="100 0 50 50"></view><view id="view-location.inline--cNxtd" viewBox="150 0 45 50"></view><view id="view-mail.inline--B5F1R" viewBox="200 0 55.56 50"></view><view id="view-phone.inline--w8QU6" viewBox="300 0 50 50"></view><use id="attachment.inline--RD46m" xlink:href="#attachment.inline--RD46m" width="50" height="50" x="0" y="0"></use><use id="browse.inline--IWnP7" xlink:href="#browse.inline--IWnP7" width="50" height="50" x="50" y="0"></use><use id="download.inline--lppqf" xlink:href="#download.inline--lppqf" width="50" height="50" x="100" y="0"></use><use id="location.inline--cNxtd" xlink:href="#location.inline--cNxtd" width="45" height="50" x="150" y="0"></use><use id="mail.inline--B5F1R" xlink:href="#mail.inline--B5F1R" width="55.56" height="50" x="200" y="0"></use><use id="phone.inline--w8QU6" xlink:href="#phone.inline--w8QU6" width="50" height="50" x="300" y="0"></use></svg>