<svg width="48" height="424" xmlns="http://www.w3.org/2000/svg" xmlns:xlink="http://www.w3.org/1999/xlink"><defs><symbol viewBox="0 0 24 24" fill="none" id="genesis--67a54"><rect width="100%" height="100%" fill="black" /><path d="M6.84814 12.3227V12.5036C6.84814 12.8654 6.72218 13.1619 6.47024 13.393C6.21832 13.6216 5.88948 13.7359 5.48374 13.7359C5.05414 13.7359 4.69878 13.604 4.41768 13.3402C4.13922 13.0764 4 12.7523 4 12.368C4 11.9861 4.13922 11.6633 4.41768 11.3994C4.69878 11.1331 5.04618 11 5.45988 11C5.71976 11 5.9571 11.0565 6.1719 11.1696C6.38672 11.2826 6.55378 11.4346 6.67312 11.6256L6.27932 11.8404C6.20506 11.7148 6.095 11.6143 5.94914 11.5389C5.8033 11.461 5.6402 11.4221 5.45988 11.4221C5.16816 11.4221 4.92816 11.5125 4.73988 11.6934C4.5516 11.8743 4.45746 12.1004 4.45746 12.3717C4.45746 12.6431 4.5516 12.8679 4.73988 13.0463C4.93082 13.2247 5.1801 13.3139 5.48772 13.3139C5.73434 13.3139 5.93456 13.2598 6.08838 13.1518C6.24484 13.0413 6.34428 12.8943 6.38672 12.7109H5.4559V12.3227H6.84814Z" fill="white" /><path d="M7.92269 13.2725H9.15583V13.687H7.46523V11.049H9.13593V11.4636H7.92269V12.1494H9.03649V12.5602H7.92269V13.2725Z" fill="white" /><path d="M11.4442 11.049H11.9016V13.687H11.5436L10.2309 11.8969V13.687H9.77346V11.049H10.1315L11.4442 12.8391V11.049Z" fill="white" /><path d="M13.1141 13.2725H14.3472V13.687H12.6566V11.049H14.3273V11.4636H13.1141V12.1494H14.2279V12.5602H13.1141V13.2725Z" fill="white" /><path d="M15.8916 13.7359C15.6238 13.7359 15.3957 13.6781 15.2074 13.5626C15.0218 13.447 14.8918 13.2887 14.8176 13.0878L15.2114 12.8692C15.3228 13.1656 15.5535 13.3139 15.9035 13.3139C16.0759 13.3139 16.2045 13.2825 16.2894 13.2196C16.3769 13.1543 16.4207 13.0702 16.4207 12.9672C16.4207 12.8591 16.3743 12.7775 16.2814 12.7222C16.1886 12.6644 16.0242 12.6016 15.7882 12.5338C15.6556 12.4961 15.5482 12.4609 15.466 12.4283C15.3838 12.3956 15.2963 12.3504 15.2034 12.2926C15.1133 12.2323 15.0456 12.1582 15.0006 12.0702C14.9555 11.9823 14.9329 11.8793 14.9329 11.7612C14.9329 11.5276 15.0205 11.3429 15.1955 11.2073C15.3705 11.0691 15.5813 11 15.828 11C16.0507 11 16.2456 11.0515 16.4127 11.1545C16.5798 11.2575 16.7084 11.3994 16.7986 11.5803L16.4127 11.7914C16.296 11.5452 16.1011 11.4221 15.828 11.4221C15.6954 11.4221 15.5893 11.4522 15.5097 11.5125C15.4302 11.5703 15.3904 11.6494 15.3904 11.7499C15.3904 11.8479 15.4302 11.9258 15.5097 11.9836C15.5919 12.0388 15.7391 12.0979 15.9513 12.1607C16.0574 12.1934 16.1343 12.2185 16.182 12.2361C16.2324 12.2511 16.3013 12.2763 16.3888 12.3114C16.479 12.3466 16.5466 12.3818 16.5917 12.417C16.6368 12.4521 16.6845 12.4961 16.7349 12.5489C16.788 12.6016 16.8251 12.6619 16.8463 12.7297C16.8675 12.7976 16.8781 12.8742 16.8781 12.9596C16.8781 13.1983 16.7866 13.388 16.6036 13.5287C16.4233 13.6668 16.186 13.7359 15.8916 13.7359Z" fill="white" /><path d="M17.452 11.049H17.9094V13.687H17.452V11.049Z" fill="white" /><path d="M19.5525 13.7359C19.2847 13.7359 19.0565 13.6781 18.8683 13.5626C18.6827 13.447 18.5527 13.2887 18.4785 13.0878L18.8723 12.8692C18.9837 13.1656 19.2143 13.3139 19.5643 13.3139C19.7367 13.3139 19.8653 13.2825 19.9503 13.2196C20.0377 13.1543 20.0815 13.0702 20.0815 12.9672C20.0815 12.8591 20.0351 12.7775 19.9423 12.7222C19.8495 12.6644 19.6851 12.6016 19.4491 12.5338C19.3165 12.4961 19.2091 12.4609 19.1269 12.4283C19.0447 12.3956 18.9571 12.3504 18.8643 12.2926C18.7741 12.2323 18.7065 12.1582 18.6615 12.0702C18.6163 11.9823 18.5937 11.8793 18.5937 11.7612C18.5937 11.5276 18.6813 11.3429 18.8563 11.2073C19.0313 11.0691 19.2421 11 19.4889 11C19.7115 11 19.9065 11.0515 20.0735 11.1545C20.2407 11.2575 20.3693 11.3994 20.4595 11.5803L20.0735 11.7914C19.9569 11.5452 19.7619 11.4221 19.4889 11.4221C19.3563 11.4221 19.2501 11.4522 19.1705 11.5125C19.0911 11.5703 19.0513 11.6494 19.0513 11.7499C19.0513 11.8479 19.0911 11.9258 19.1705 11.9836C19.2527 12.0388 19.3999 12.0979 19.6121 12.1607C19.7183 12.1934 19.7951 12.2185 19.8429 12.2361C19.8933 12.2511 19.9621 12.2763 20.0497 12.3114C20.1399 12.3466 20.2075 12.3818 20.2525 12.417C20.2977 12.4521 20.3453 12.4961 20.3957 12.5489C20.4489 12.6016 20.4859 12.6619 20.5071 12.7297C20.5283 12.7976 20.5389 12.8742 20.5389 12.9596C20.5389 13.1983 20.4475 13.388 20.2645 13.5287C20.0841 13.6668 19.8469 13.7359 19.5525 13.7359Z" fill="white" /><circle cx="3" cy="9" r="1" fill="#F2BB48" /></symbol><symbol viewBox="0 0 16 16" fill="none" id="github--9e06c"><rect width="100%" height="100%" fill="black" /><path d="M7.98724 3.83C5.94846 3.82974 4.2105 5.30833 3.88407 7.32081C3.55765 9.33328 4.73915 11.2854 6.67349 11.9296C6.88182 11.9671 6.95641 11.8392 6.95641 11.7292C6.95641 11.6304 6.95307 11.3688 6.95182 11.0208C5.79557 11.2708 5.55141 10.4633 5.55141 10.4633C5.47529 10.2121 5.31165 9.99639 5.09016 9.85542C4.71516 9.5975 5.11891 9.60334 5.11891 9.60334C5.38586 9.63994 5.6208 9.79811 5.75516 10.0317C5.86888 10.2384 6.06047 10.3912 6.28737 10.4561C6.51426 10.521 6.75766 10.4925 6.96349 10.3771C6.98283 10.1663 7.07663 9.9692 7.22807 9.82125C6.30557 9.71667 5.33557 9.36 5.33557 7.76709C5.33045 7.35508 5.48345 6.95679 5.76307 6.65417C5.63655 6.29555 5.65145 5.90219 5.80474 5.55417C5.80474 5.55417 6.15349 5.44209 6.94724 5.97959C7.62801 5.79292 8.34647 5.79292 9.02724 5.97959C9.82141 5.44167 10.1697 5.55417 10.1697 5.55417C10.3237 5.90203 10.3386 6.29566 10.2114 6.65417C10.4921 6.95676 10.6449 7.3561 10.6381 7.76875C10.6381 9.36584 9.66724 9.71667 8.74141 9.81959C8.94112 10.0238 9.04355 10.3039 9.02266 10.5888C9.02266 11.1446 9.01766 11.5929 9.01766 11.7292C9.01766 11.8404 9.09182 11.9696 9.30391 11.9288C11.2374 11.2835 12.4177 9.33124 12.0906 7.3193C11.7635 5.30736 10.0256 3.82954 7.98724 3.83Z" fill="white" /></symbol><symbol viewBox="0 0 24 24" fill="none" id="highschool--253ff"><rect width="100%" height="100%" fill="#E2E6EE" /><path d="M7.91659 12.6883V15.0217L11.9999 17.25L16.0833 15.0217V12.6883L11.9999 14.9167L7.91659 12.6883ZM11.9999 6.75L5.58325 10.25L11.9999 13.75L17.2499 10.8858V14.9167H18.4166V10.25L11.9999 6.75Z" fill="#79819A" /></symbol><symbol viewBox="0 0 24 24" fill="none" id="hillel--738b0"><rect width="100%" height="100%" fill="#233A77" /><path d="M6.32789 10.1595C6.62992 10.3219 6.78326 10.5194 6.78326 11.1497V13.3483H7.64505V10.9488C7.64505 9.92757 7.07603 9.26174 6.12284 9.16822C5.79776 9.13883 5.52559 9.16548 5.23979 9.25586C5.13953 9.28722 5.04719 9.32837 4.96543 9.37792L4.91001 9.41091V6.9126L4.8745 6.93094C4.80105 6.96966 4.66583 7.0414 4.45441 7.15781C4.11492 7.3493 4 7.58008 4 8.0722V13.3483H4.91001V10.2923L4.92647 10.2816C5.35196 10.0033 5.94105 9.95211 6.32789 10.1595V10.1595Z" fill="white" /><path d="M15.1788 11.0007L15.182 10.9615C15.2332 10.3022 15.8297 10.0019 16.3623 10.0019C16.8967 10.0019 17.4981 10.302 17.5567 10.961L17.5604 11.0007H15.1788V11.0007ZM17.9136 9.87504C17.5423 9.43065 17.0016 9.186 16.3911 9.186H16.378C15.0084 9.19408 14.2916 10.266 14.2916 11.3204C14.287 11.9146 14.5059 12.4785 14.8922 12.8677C15.2688 13.247 15.7853 13.4473 16.3863 13.4473C17.0996 13.4473 17.7147 13.1289 18.1647 12.5265L18.1803 12.5057L17.5231 12.0875L17.5099 12.1059C17.1778 12.5648 16.7351 12.6236 16.3863 12.6236C15.7187 12.6236 15.293 12.175 15.1798 11.7588L15.1671 11.7128H18.3491L18.3528 11.6929C18.478 11.0212 18.3178 10.3586 17.9136 9.87504V9.87504Z" fill="white" /><path d="M9.55565 8.87301C9.48189 8.91173 9.34666 8.9833 9.13533 9.09986C8.79575 9.29144 8.68115 9.52222 8.68115 10.0141V13.3483H9.59139V8.85443L9.55565 8.87301V8.87301Z" fill="white" /><path d="M12.5745 13.3319V8.08819C12.5745 7.5963 12.6894 7.36553 13.0297 7.17348C13.2403 7.05738 13.3753 6.9859 13.449 6.94741L13.4848 6.92876V13.3319H12.5745Z" fill="white" /><path d="M10.6279 13.3319V8.08819C10.6279 7.5963 10.7428 7.36553 11.0828 7.17348C11.2938 7.05738 11.4287 6.9859 11.5022 6.94741L11.538 6.92876V13.3319H10.6279Z" fill="white" /><path d="M19.2517 13.3319V8.08819C19.2517 7.5963 19.3663 7.36553 19.7066 7.17348C19.9173 7.05738 20.0525 6.9859 20.126 6.94741L20.1617 6.92876V13.3319H19.2517Z" fill="white" /><path d="M9.02432 8.55978C9.13406 8.49095 9.23746 8.44 9.32071 8.39932C9.45396 8.33394 9.56841 8.27735 9.65362 8.185C10.0718 7.73231 9.96545 7.03685 9.96082 7.00745L9.94907 6.93565L9.91528 7.00009C9.91355 7.00353 9.72495 7.35894 9.39447 7.60563C9.357 7.6333 9.31091 7.66443 9.25658 7.70096C9.15711 7.76806 9.03295 7.8513 8.88346 7.96842C8.39212 8.35386 8.38647 8.99162 8.38647 9.01858V9.08717L8.42982 9.03379C8.43029 9.03278 8.59883 8.827 9.02432 8.55978V8.55978Z" fill="#4ED401" /><path d="M8.92013 7.26989C9.14549 7.12856 9.3054 7.0185 9.40928 6.90656C9.73505 6.55381 9.64813 6.08764 9.64397 6.06805L9.63072 6L9.59866 6.06123C9.59764 6.06341 9.45459 6.33511 9.19888 6.52568C9.17145 6.54621 9.13813 6.56878 9.09917 6.59497C9.02032 6.64812 8.92083 6.71506 8.80545 6.80544C8.42503 7.10355 8.42041 7.59763 8.42041 7.61848V7.68731L8.46376 7.63361C8.46446 7.63267 8.58988 7.47738 8.92013 7.26989V7.26989Z" fill="#4ED401" /><path d="M4.36649 14.705H4V16.9647H4.36649V14.705Z" fill="white" /><path d="M4.65894 14.7082V15.0457H5.19246V16.9647H5.56217V15.0457H6.0925V14.7082H4.65894V14.7082Z" fill="white" /><path d="M7.70608 15.9843C7.60318 15.9618 7.45212 15.9425 7.44891 15.801C7.4457 15.6532 7.59998 15.6082 7.70608 15.6082C7.81854 15.6082 7.91181 15.65 8.01463 15.7303L8.2075 15.515C8.05003 15.3511 7.86678 15.2996 7.69966 15.2996C7.39746 15.2996 7.10818 15.4764 7.10818 15.7978C7.1114 16.1064 7.35893 16.2382 7.62895 16.2832C7.7382 16.3025 7.90539 16.3507 7.90539 16.5082C7.90539 16.6464 7.75104 16.6914 7.62895 16.685C7.50036 16.6754 7.37177 16.6014 7.28179 16.4857L7.06323 16.6978C7.21108 16.9068 7.41681 17 7.63858 17C7.90217 17 8.24604 16.8714 8.24604 16.4985C8.24604 16.1804 7.98252 16.0358 7.70608 15.9843V15.9843Z" fill="white" /><path d="M9.93696 15.5664C9.75379 15.3864 9.5577 15.3028 9.3295 15.3028C8.78626 15.3061 8.48735 15.7079 8.48413 16.1514C8.48413 16.5951 8.77341 17 9.3295 17C9.5577 17 9.77626 16.8972 9.9498 16.7236L9.75057 16.5082C9.59951 16.6432 9.48698 16.6818 9.3295 16.6818C9.00483 16.6818 8.83128 16.4375 8.83128 16.1578C8.83449 15.8043 9.07554 15.6211 9.32628 15.6243C9.4645 15.6243 9.61235 15.6596 9.74094 15.7851L9.93696 15.5664V15.5664Z" fill="white" /><path d="M10.2966 14.7147V16.9647H10.647V15.7271C10.7499 15.6628 10.8753 15.6147 10.9909 15.6179C11.2159 15.6243 11.4152 15.7561 11.4152 16.0132V16.9647H11.7656V16.0132C11.7656 15.5632 11.457 15.3093 11.0424 15.3093C10.9331 15.3093 10.7756 15.3447 10.6502 15.4507V14.7147H10.2966V14.7147Z" fill="white" /><path d="M12.4568 16.1514C12.4568 15.7914 12.7172 15.6243 12.9582 15.6243C13.2057 15.6243 13.4564 15.7914 13.4564 16.1514C13.4564 16.5114 13.2057 16.685 12.9582 16.685C12.7172 16.685 12.4568 16.5114 12.4568 16.1514V16.1514ZM13.8068 16.1514C13.8068 15.6757 13.45 15.306 12.9582 15.306C12.4696 15.306 12.1064 15.6757 12.1064 16.1514C12.1064 16.6239 12.4696 17 12.9582 17C13.45 17 13.8068 16.6239 13.8068 16.1514Z" fill="white" /><path d="M14.4273 16.1514C14.4273 15.7914 14.6876 15.6243 14.9287 15.6243C15.1761 15.6243 15.4269 15.7914 15.4269 16.1514C15.4269 16.5114 15.1761 16.685 14.9287 16.685C14.6876 16.685 14.4273 16.5114 14.4273 16.1514V16.1514ZM15.7773 16.1514C15.7773 15.6757 15.4205 15.306 14.9287 15.306C14.4401 15.306 14.0769 15.6757 14.0769 16.1514C14.0769 16.6239 14.4401 17 14.9287 17C15.4205 17 15.7773 16.6239 15.7773 16.1514Z" fill="white" /><path d="M16.7254 16.6529C16.5293 16.669 16.4844 16.5951 16.4844 16.4633V14.7147H16.134V16.4633C16.134 16.8393 16.3398 17.0097 16.7254 16.9679V16.6529V16.6529Z" fill="white" /></symbol><symbol viewBox="0 0 16 16" fill="none" id="instagram--70e34"><rect width="100%" height="100%" fill="url(#instagram--70e34_paint0_radial_975_8989)" /><rect width="100%" height="100%" fill="url(#instagram--70e34_paint1_radial_975_8989)" fill-opacity="0.2" /><path d="M6.33373 8.0002C6.33373 7.07972 7.07972 6.33333 8.0002 6.33333C8.92068 6.33333 9.66707 7.07972 9.66707 8.0002C9.66707 8.92068 8.92068 9.66707 8.0002 9.66707C7.07972 9.66707 6.33373 8.92068 6.33373 8.0002V8.0002ZM5.43266 8.0002C5.43266 9.41826 6.58214 10.5677 8.0002 10.5677C9.41826 10.5677 10.5677 9.41826 10.5677 8.0002C10.5677 6.58214 9.41826 5.43266 8.0002 5.43266C6.58214 5.43266 5.4327 6.58206 5.4327 8.0002H5.43266ZM10.0694 5.33085C10.0694 5.44953 10.1045 5.56555 10.1704 5.66425C10.2363 5.76295 10.33 5.83989 10.4396 5.88535C10.5492 5.93081 10.6698 5.94274 10.7863 5.91963C10.9027 5.89653 11.0096 5.83943 11.0935 5.75554C11.1775 5.67166 11.2347 5.56477 11.2579 5.44839C11.2811 5.332 11.2692 5.21135 11.2239 5.1017C11.1785 4.99204 11.1016 4.8983 11.003 4.83233C10.9043 4.76635 10.7883 4.73112 10.6697 4.73107H10.6694C10.5104 4.73114 10.3578 4.79435 10.2453 4.90681C10.1328 5.01927 10.0695 5.17178 10.0694 5.33085V5.33085ZM5.98012 12.0703C5.49262 12.0481 5.22765 11.9669 5.05156 11.8983C4.81811 11.8074 4.65155 11.6991 4.47642 11.5243C4.30129 11.3494 4.19289 11.183 4.1024 10.9495C4.03376 10.7735 3.95256 10.5085 3.9304 10.021C3.90616 9.4939 3.90132 9.33557 3.90132 8.00028C3.90132 6.66499 3.90656 6.5071 3.9304 5.9796C3.9526 5.4921 4.0344 5.22757 4.1024 5.05104C4.19329 4.81759 4.30153 4.65103 4.47642 4.4759C4.65131 4.30077 4.81771 4.19237 5.05156 4.10188C5.22757 4.03324 5.49262 3.95204 5.98012 3.92988C6.50718 3.90564 6.66551 3.9008 8.0002 3.9008C9.33489 3.9008 9.49338 3.90596 10.0209 3.92996C10.5084 3.95216 10.7729 4.03396 10.9494 4.10196C11.1829 4.19245 11.3495 4.30109 11.5246 4.47598C11.6997 4.65087 11.8077 4.81767 11.8986 5.05112C11.9672 5.22713 12.0484 5.49218 12.0706 5.97968C12.0948 6.50718 12.0997 6.66507 12.0997 8.00036C12.0997 9.33565 12.0948 9.49354 12.0706 10.021C12.0484 10.5085 11.9668 10.7735 11.8986 10.9496C11.8077 11.183 11.6995 11.3496 11.5246 11.5243C11.3497 11.6991 11.1829 11.8075 10.9494 11.8984C10.7734 11.967 10.5084 12.0482 10.0209 12.0704C9.49382 12.0946 9.33549 12.0994 8.0002 12.0994C6.66491 12.0994 6.50702 12.0946 5.98012 12.0704V12.0703ZM5.93872 3.03028C5.40642 3.05452 5.04268 3.13893 4.72503 3.26253C4.39626 3.39018 4.11756 3.56142 3.83927 3.83927C3.56098 4.11713 3.39018 4.39586 3.26253 4.72503C3.13893 5.04288 3.05452 5.40642 3.03028 5.93872C3.00564 6.47186 3 6.64231 3 8.0002C3 9.3581 3.00564 9.52854 3.03028 10.0617C3.05452 10.594 3.13893 10.9575 3.26253 11.2754C3.39018 11.6041 3.56102 11.8834 3.83927 12.1611C4.11752 12.4389 4.39586 12.6099 4.72503 12.7379C5.04328 12.8615 5.40642 12.9459 5.93872 12.9701C6.47214 12.9944 6.64231 13.0004 8.0002 13.0004C9.35809 13.0004 9.52854 12.9948 10.0617 12.9701C10.594 12.9459 10.9575 12.8615 11.2754 12.7379C11.6041 12.6099 11.8828 12.439 12.1611 12.1611C12.4394 11.8833 12.6099 11.6041 12.7379 11.2754C12.8615 10.9575 12.9463 10.594 12.9701 10.0617C12.9944 9.52814 13 9.3581 13 8.0002C13 6.64231 12.9944 6.47186 12.9701 5.93872C12.9459 5.40638 12.8615 5.04268 12.7379 4.72503C12.6099 4.39626 12.439 4.11757 12.1611 3.83927C11.8833 3.56098 11.6041 3.39018 11.2758 3.26253C10.9575 3.13893 10.594 3.05412 10.0621 3.03028C9.52886 3.00592 9.3585 3 8.0008 3C6.64311 3 6.47234 3.00564 5.93892 3.03028" fill="white" /><defs></defs></symbol><radialGradient id="instagram--70e34_paint0_radial_975_8989" cx="0" cy="0" r="1" gradientUnits="userSpaceOnUse" gradientTransform="translate(1.0355 15.6495) scale(20.3141)"><stop offset="0.09" stop-color="#FA8F21" /><stop offset="0.78" stop-color="#D82D7E" /></radialGradient><radialGradient id="instagram--70e34_paint1_radial_975_8989" cx="0" cy="0" r="1" gradientUnits="userSpaceOnUse" gradientTransform="translate(8 15.5) scale(12.5)"><stop offset="0.713542" stop-color="#8C3AAA" stop-opacity="0" /><stop offset="1" stop-color="#8C3AAA" /></radialGradient><symbol viewBox="0 0 48 48" fill="none" id="lab73digital--ad7a1">
  <g clip-path="url(#lab73digital--ad7a1_clip0_1310_28)">
    <g filter="url(#lab73digital--ad7a1_filter0_f_1310_28)">
      <rect x="36.1316" y="77.6979" width="78.3601" height="73.4875" transform="rotate(-146.805 36.1316 77.6979)" fill="url(#lab73digital--ad7a1_paint0_linear_1310_28)" />
    </g>
    <g filter="url(#lab73digital--ad7a1_filter1_d_1310_28)">
      <path d="M9 21H10.899V26.1543H14.1995L13.5213 27.782H9V21ZM20.665 21.0904H22.4284L25.2316 27.6916H23.2874L22.7901 26.516H20.2581L19.806 27.6916H17.8618L20.665 21.0904ZM22.2475 25.1144L21.5241 23.2607L20.8007 25.1144H22.2475ZM28.4417 21H31.9232C32.7822 21 33.37 21.2261 33.7769 21.5878C34.0482 21.8591 34.229 22.2208 34.229 22.7181C34.229 23.4867 33.7769 23.9841 33.1891 24.2101C34.003 24.4814 34.5455 24.9336 34.5455 25.883C34.5455 27.0586 33.596 27.7368 31.9684 27.7368H28.4869V21H28.4417ZM31.471 23.7128C32.0588 23.7128 32.3753 23.5319 32.3753 23.125C32.3753 22.7633 32.104 22.5373 31.5162 22.5373H30.2955V23.7128H31.471ZM31.7423 26.2447C32.3301 26.2447 32.6466 26.0187 32.6466 25.6118C32.6466 25.2501 32.3753 25.024 31.7423 25.024H30.2955V26.29H31.7423V26.2447Z" fill="white" />
      <path d="M37.8254 23.9375H37.1905L38.3968 21.625V21.5H37V21H39.0635V21.625L37.8254 23.9375ZM42.8413 21V21.625L42.2698 22.0312V22.1563C42.6825 22.1875 43 22.4688 43 23C43 23.625 42.5238 24 41.8571 24C41.1905 24 40.7143 23.5937 40.7143 23.0312H41.3175C41.3492 23.3125 41.5397 23.4375 41.8254 23.4375C42.1429 23.4375 42.3651 23.25 42.3651 22.9687C42.3651 22.6875 42.1746 22.4688 41.8254 22.4688C41.6984 22.4688 41.6349 22.4687 41.5397 22.5V22.0312L42.1111 21.625V21.5H40.873V21H42.8413Z" fill="white" />
    </g>
  </g>
  <defs>
    
    
    
    
  </defs>
</symbol><filter id="lab73digital--ad7a1_filter0_f_1310_28" x="-39.4407" y="-36.699" width="125.807" height="124.397" filterUnits="userSpaceOnUse" color-interpolation-filters="sRGB">
      <feFlood flood-opacity="0" result="BackgroundImageFix"></feFlood>
      <feBlend mode="normal" in="SourceGraphic" in2="BackgroundImageFix" result="shape"></feBlend>
      <feGaussianBlur stdDeviation="5" result="effect1_foregroundBlur_1310_28"></feGaussianBlur>
    </filter><filter id="lab73digital--ad7a1_filter1_d_1310_28" x="5" y="21" width="42" height="14.782" filterUnits="userSpaceOnUse" color-interpolation-filters="sRGB">
      <feFlood flood-opacity="0" result="BackgroundImageFix"></feFlood>
      <feColorMatrix in="SourceAlpha" type="matrix" values="0 0 0 0 0 0 0 0 0 0 0 0 0 0 0 0 0 0 127 0" result="hardAlpha"></feColorMatrix>
      <feOffset dy="4"></feOffset>
      <feGaussianBlur stdDeviation="2"></feGaussianBlur>
      <feComposite in2="hardAlpha" operator="out"></feComposite>
      <feColorMatrix type="matrix" values="0 0 0 0 0.239216 0 0 0 0 0.960784 0 0 0 0 0.780392 0 0 0 0.1 0"></feColorMatrix>
      <feBlend mode="normal" in2="BackgroundImageFix" result="effect1_dropShadow_1310_28"></feBlend>
      <feBlend mode="normal" in="SourceGraphic" in2="effect1_dropShadow_1310_28" result="shape"></feBlend>
    </filter><linearGradient id="lab73digital--ad7a1_paint0_linear_1310_28" x1="75.3116" y1="77.6979" x2="75.3116" y2="151.185" gradientUnits="userSpaceOnUse">
      <stop stop-color="#043A8A" />
      <stop offset="0.578125" stop-color="#2678F4" />
      <stop offset="1" stop-color="#47EBB4" />
    </linearGradient><clipPath id="lab73digital--ad7a1_clip0_1310_28">
      <rect width="48" height="48" fill="white" />
    </clipPath><symbol viewBox="0 0 16 16" fill="none" id="linkedin--f2403"><rect width="100%" height="100%" fill="#0077B5" /><path d="M8.41667 11.75H6.75V6.75H8.41667V7.58333C8.77193 7.13136 9.31068 6.86191 9.88542 6.84875C10.919 6.85449 11.753 7.69557 11.75 8.72917V11.75H10.0833V8.9375C10.0167 8.47193 9.6174 8.12649 9.14708 8.1275C8.94137 8.134 8.74718 8.22407 8.60935 8.37693C8.47152 8.52978 8.40194 8.73221 8.41667 8.9375V11.75ZM5.91667 11.75H4.25V6.75H5.91667V11.75ZM5.08333 5.91667C4.6231 5.91667 4.25 5.54357 4.25 5.08333C4.25 4.6231 4.6231 4.25 5.08333 4.25C5.54357 4.25 5.91667 4.6231 5.91667 5.08333C5.91667 5.30435 5.82887 5.51631 5.67259 5.67259C5.51631 5.82887 5.30435 5.91667 5.08333 5.91667Z" fill="white" /></symbol><symbol viewBox="0 0 24 24" fill="none" id="playtech--a34f6">
  <rect width="100%" height="100%" fill="#2B3D7D" />
  <path d="M18.231 9.54484C18.2212 9.52094 18.2155 9.49759 18.2056 9.47311C17.6137 8.01048 15.3647 7.56727 12.7721 8.23559L12.3469 7.9685C13.6232 7.41331 14.8944 7.12346 15.9595 7.20277C17.5483 7.32408 18.3254 8.23559 18.231 9.54484V9.54484ZM15.926 12.6171C14.2637 14.7503 11.2597 16.227 9.21557 16.0742C7.17491 15.9185 6.86536 14.0645 8.52821 11.9312C8.56119 11.8875 8.59706 11.8443 8.63178 11.8006L8.63703 14.4751C8.62604 15.1551 9.27579 15.4741 9.7427 15.2041L15.8543 11.4472C16.3322 11.1352 16.2818 10.4371 15.8317 10.1683L13.3536 8.73072C14.0236 8.52778 14.6664 8.43213 15.2375 8.4747C17.2799 8.63041 17.5871 10.4838 15.926 12.6171L15.926 12.6171ZM8.15276 17.2219C6.27699 17.0796 5.52888 15.8333 6.0172 14.1363C6.01425 14.4191 6.05829 14.6903 6.16243 14.9422C6.8955 16.7588 10.1865 17.0049 13.5122 15.4968C13.5805 15.4659 13.6481 15.4321 13.7153 15.4018C11.8482 16.6165 9.76816 17.3426 8.15276 17.2219V17.2219ZM10.3138 7.72473L14.4165 10.331C14.7197 10.5141 14.7561 10.9911 14.4333 11.2028L10.2889 13.7502C9.9724 13.9339 9.52863 13.7152 9.5373 13.2504L9.51764 8.19245C9.53558 7.77022 9.94984 7.51537 10.3138 7.72473H10.3138ZM19.8106 8.66308C18.9509 6.53329 15.3798 6.06441 11.5155 7.44247L9.80057 6.3595C9.26653 6.05216 8.65671 6.42657 8.6272 7.04941L8.62836 8.80829C5.29804 10.8197 3.36673 13.7152 4.1889 15.7534C5.14182 18.1077 9.41003 18.4308 13.7228 16.4725C18.0367 14.5153 20.7618 11.0186 19.8106 8.66308" fill="white" />
</symbol><symbol viewBox="0 0 48 48" fill="none" id="skywellsoftware--a3caf">
  <rect width="48" height="48" fill="url(#skywellsoftware--a3caf_paint0_linear_1309_16)" />
  <path opacity="0.8" d="M12 20.3308C12 19.5208 12 19.1158 12.1251 18.7581C12.2357 18.4419 12.4162 18.1538 12.6535 17.9147C12.922 17.6443 13.2894 17.4629 14.0242 17.1001L23.1131 12.6129C24.8705 11.7453 25.7492 11.3115 26.4636 11.4151C27.0873 11.5056 27.6457 11.8455 28.0072 12.3546C28.4212 12.9377 28.4212 13.9063 28.4212 15.8436V27.6806C28.4212 28.4906 28.4212 28.8956 28.2961 29.2532C28.1855 29.5695 28.005 29.8576 27.7676 30.0967C27.4992 30.367 27.1318 30.5484 26.397 30.9112L17.3081 35.3984C15.5507 36.2661 14.6719 36.6999 13.9576 36.5962C13.3338 36.5057 12.7754 36.1659 12.414 35.6567C12 35.0736 12 34.105 12 32.1678V20.3308Z" fill="white" />
  <path opacity="0.6" d="M19.5788 20.3308C19.5788 19.5208 19.5788 19.1158 19.7039 18.7581C19.8145 18.4419 19.995 18.1538 20.2324 17.9147C20.5008 17.6443 20.8682 17.4629 21.603 17.1001L30.6919 12.6129C32.4493 11.7453 33.328 11.3115 34.0424 11.4151C34.6661 11.5056 35.2245 11.8455 35.586 12.3546C36 12.9377 36 13.9063 36 15.8436V27.6806C36 28.4906 36 28.8956 35.8749 29.2532C35.7643 29.5695 35.5838 29.8576 35.3465 30.0967C35.078 30.367 34.7106 30.5484 33.9758 30.9112L24.8869 35.3984C23.1295 36.2661 22.2508 36.6999 21.5364 36.5962C20.9126 36.5057 20.3543 36.1659 19.9928 35.6567C19.5788 35.0736 19.5788 34.105 19.5788 32.1678V20.3308Z" fill="white" />
  <defs>
    
  </defs>
</symbol><linearGradient id="skywellsoftware--a3caf_paint0_linear_1309_16" x1="48" y1="0" x2="-4.99891" y2="53.0011" gradientUnits="userSpaceOnUse">
      <stop stop-color="#0BE2F4" />
      <stop offset="0.515625" stop-color="#3C97FF" />
      <stop offset="1" stop-color="#0077FF" />
    </linearGradient><symbol viewBox="0 0 16 16" fill="none" id="twitter--42da7">
  <rect width="100%" height="100%" fill="#00ACEE" />
  <path d="M11.3313 5.57644C11.7048 5.35314 11.9842 5.00154 12.1175 4.58727C11.7665 4.79552 11.3825 4.94222 10.9821 5.02102C10.4269 4.43374 9.5473 4.29082 8.83476 4.67213C8.12221 5.05343 7.75313 5.86456 7.93376 6.65227C6.49609 6.58009 5.15666 5.90099 4.24876 4.78394C3.77494 5.6012 4.01707 6.64593 4.80209 7.17144C4.51822 7.16231 4.24064 7.08545 3.99251 6.94727C3.99251 6.95477 3.99251 6.96227 3.99251 6.96977C3.99267 7.82109 4.59266 8.55439 5.42709 8.72311C5.16378 8.79474 4.88759 8.80529 4.61959 8.75394C4.85426 9.48197 5.52524 9.98073 6.29001 9.99561C5.6566 10.4927 4.87437 10.7623 4.06917 10.761C3.92645 10.7612 3.78384 10.753 3.64209 10.7364C4.45975 11.2619 5.41141 11.5408 6.38334 11.5398C7.73553 11.5491 9.03502 11.016 9.99114 10.0598C10.9473 9.10358 11.4802 7.80404 11.4708 6.45186C11.4708 6.37436 11.469 6.29727 11.4654 6.22061C11.8156 5.96752 12.1178 5.654 12.3579 5.29477C12.0317 5.43938 11.6856 5.53432 11.3313 5.57644Z" fill="white" />
</symbol><symbol viewBox="0 0 24 24" fill="none" id="upwork--ed751"><rect width="100%" height="100%" fill="#6FDA44" /><path d="M16.676 13.8292C15.8888 13.8292 15.152 13.4956 14.4816 12.9524L14.6448 12.186L14.652 12.158C14.7976 11.342 15.2584 9.9716 16.676 9.9716C17.7392 9.9716 18.604 10.838 18.604 11.902C18.6008 12.9628 17.736 13.8292 16.676 13.8292V13.8292ZM16.676 8.0156C14.8648 8.0156 13.4608 9.194 12.8904 11.1316C12.0184 9.822 11.3592 8.25 10.9728 6.926H9.02405V12.0044C9.02405 13.0052 8.20885 13.8212 7.20885 13.8212C6.20885 13.8212 5.39445 13.0052 5.39445 12.0044V6.926H3.44485V12.0044C3.43765 14.0844 5.12885 15.7916 7.20565 15.7916C9.28245 15.7916 10.9736 14.0844 10.9736 12.0044V11.1524C11.3528 11.9436 11.8168 12.742 12.3808 13.4524L11.1864 19.074H13.1824L14.0472 14.9964C14.8056 15.4828 15.6776 15.7876 16.6776 15.7876C18.8152 15.7876 20.5552 14.034 20.5552 11.894C20.5536 9.758 18.8136 8.0156 16.676 8.0156V8.0156Z" fill="#fff" /></symbol><symbol viewBox="0 0 24 24" fill="none" id="workrocks--156a2"><rect width="100%" height="100%" fill="#341561" /><path d="M19.1022 7.84341C18.4741 7.30501 17.6643 7.00873 16.8205 7.00873C14.9395 7.00873 13.4083 8.47055 13.4006 10.2706L13.3999 13.7242C13.3999 14.2682 12.938 14.7105 12.3704 14.7105C11.8031 14.7105 11.3408 14.2682 11.3408 13.7242V8.14492C11.3408 7.51289 10.8056 7 10.1455 7C9.48532 7 8.94978 7.51289 8.94978 8.14492V13.7242C8.94978 14.2682 8.48818 14.7105 7.92094 14.7105C7.35224 14.7105 6.89065 14.2682 6.89065 13.7242V8.14492C6.89065 7.51289 6.35511 7 5.69533 7C5.03518 7 4.5 7.51289 4.5 8.14492V13.7242C4.5 15.5309 6.03451 17 7.92094 17C8.76907 17 9.54653 16.7023 10.1455 16.21C10.744 16.7023 11.5219 17 12.3704 17C14.2564 17 15.7913 15.5309 15.7913 13.7242V10.2842C15.7913 9.74055 16.2533 9.29823 16.8205 9.29823C17.0744 9.29823 17.3185 9.38732 17.5072 9.54909C17.9987 9.97114 18.7547 9.93096 19.1955 9.46C19.6352 8.98868 19.594 8.26511 19.1022 7.84341Z" fill="white" /></symbol></defs></svg>