<svg viewBox="0 0 16 12" fill="none" xmlns="http://www.w3.org/2000/svg">
  <rect width="100%" height="100%" fill="#22438B" />
  <path fill-rule="evenodd" clip-rule="evenodd"
    d="M1.33336 -0.0666656L-0.467529 -0.042399L-0.444418 1.8L14.6507 12.0928L16.4614 12.0583L16.4276 10.2271L1.33336 -0.0666656Z"
    fill="white" />
  <path fill-rule="evenodd" clip-rule="evenodd"
    d="M0.444553 -0.0666656L-0.444336 0.866668L15.5557 12.0667L16.4446 11.1333L0.444553 -0.0666656Z" fill="#C7152A" />
  <path fill-rule="evenodd" clip-rule="evenodd"
    d="M14.6667 -0.0666656H16.4444V1.8C16.4444 1.8 5.99999 8.70293 1.34932 12.0928C1.29332 12.1339 -0.426675 12.0956 -0.426675 12.0956L-0.564453 10.3213L14.6667 -0.0666656Z"
    fill="white" />
  <path fill-rule="evenodd" clip-rule="evenodd"
    d="M15.5939 -0.0928001L16.4446 0.866667L0.444553 12.0667L-0.444336 11.1333L15.5939 -0.0928001Z" fill="#C7152A" />
  <path fill-rule="evenodd" clip-rule="evenodd"
    d="M5.77789 -0.0666656H10.2223V3.66667H16.4446V8.33333H10.2223V12.0667H5.77789V8.33333H-0.444336V3.66667H5.77789V-0.0666656Z"
    fill="white" />
  <path fill-rule="evenodd" clip-rule="evenodd"
    d="M6.66678 -0.0666656H9.33344V4.6H16.4446V7.4H9.33344V12.0667H6.66678V7.4H-0.444336V4.6H6.66678V-0.0666656Z"
    fill="#C7152A" />
</svg>
