<svg viewBox="0 0 6 6" xmlns="http://www.w3.org/2000/svg">
  <path d="M2.26361 4.77813C1.84232 4.77813 1.46252 4.52436 1.30127 4.13516C1.14003 3.74595 1.22909 3.29794 1.52694 3L1.96902 2.55792L2.26361 2.8525L1.82173 3.29438C1.66383 3.45228 1.60216 3.68243 1.65996 3.89813C1.71775 4.11384 1.88623 4.28232 2.10194 4.34011C2.31764 4.39791 2.54779 4.33624 2.70569 4.17834L3.14757 3.73646L3.44215 4.03125L3.00027 4.47313C2.80529 4.66907 2.54004 4.7789 2.26361 4.77813ZM2.4109 3.88375L2.11632 3.58917L3.58944 2.11605L3.88402 2.41063L2.41111 3.88355L2.4109 3.88375ZM4.03152 3.44188L3.73673 3.1473L4.17861 2.70542C4.33866 2.54799 4.40198 2.31681 4.34449 2.09979C4.287 1.88277 4.11753 1.71326 3.90053 1.65572C3.68352 1.59818 3.45233 1.66145 3.29486 1.82146L2.85277 2.26334L2.55819 1.96875L3.00027 1.52667C3.40758 1.12291 4.06464 1.12435 4.47018 1.52989C4.87572 1.93543 4.87716 2.59249 4.4734 2.9998L4.03152 3.44167V3.44188Z" />
</svg>
