<svg viewBox="0 0 6 8" xmlns="http://www.w3.org/2000/svg">
  <path
    d="M3.00004 7.75002C2.47376 7.30112 1.98595 6.80899 1.54171 6.27877C0.875041 5.48252 0.0833744 4.29669 0.0833744 3.16669C0.0827835 1.9865 0.793477 0.922267 1.88382 0.470603C2.97416 0.0189394 4.22924 0.268871 5.06338 1.10377C5.6119 1.64986 5.91917 2.39268 5.91672 3.16669C5.91672 4.29669 5.12504 5.48252 4.45837 6.27877C4.01413 6.80899 3.52632 7.30112 3.00004 7.75002ZM3.00004 1.91669C2.55346 1.91669 2.1408 2.15494 1.91751 2.54169C1.69422 2.92844 1.69422 3.40494 1.91751 3.79169C2.1408 4.17844 2.55346 4.41669 3.00004 4.41669C3.6904 4.41669 4.25004 3.85704 4.25004 3.16669C4.25004 2.47633 3.6904 1.91669 3.00004 1.91669Z"
  />
</svg>
