<svg viewBox="0 0 10 10" xmlns="http://www.w3.org/2000/svg">
  <path fill-rule="evenodd" clip-rule="evenodd"
    d="M3.55484 1.22365C4.4652 0.694693 5.58418 0.703938 6.48599 1.24787C7.37894 1.80288 7.92165 2.7934 7.9166 3.85893C7.89581 4.91747 7.31387 5.9125 6.58645 6.6817C6.1666 7.12766 5.69692 7.52201 5.18702 7.85668C5.1345 7.88704 5.07698 7.90737 5.01729 7.91666C4.95983 7.91422 4.90388 7.89724 4.85448 7.86726C4.07601 7.3644 3.39306 6.72251 2.83847 5.97248C2.37441 5.3464 2.11077 4.59 2.08333 3.806C2.08273 2.73843 2.64449 1.75261 3.55484 1.22365ZM4.0809 4.24782C4.23404 4.62534 4.59549 4.8716 4.9965 4.8716C5.25921 4.87348 5.51175 4.76826 5.69784 4.57936C5.88393 4.39046 5.98812 4.13359 5.98719 3.86599C5.98859 3.45751 5.74811 3.08846 5.37803 2.93115C5.00795 2.77384 4.58127 2.85931 4.29722 3.14764C4.01316 3.43597 3.92777 3.8703 4.0809 4.24782Z"
     />
  <ellipse opacity="0.6" cx="5" cy="8.75" rx="2.08333" ry="0.416667"  />
</svg>
