<svg viewBox="0 0 10 10" xmlns="http://www.w3.org/2000/svg">
<path opacity="0.6"
  d="M9.16662 6.64175C9.16662 7.80425 8.23329 8.74592 7.07079 8.75009H7.06662H2.93746C1.77913 8.75009 0.833292 7.81259 0.833292 6.65009V6.64592C0.833292 6.64592 0.835792 4.80175 0.839125 3.87425C0.839542 3.70009 1.03954 3.60259 1.17579 3.71092C2.16579 4.49634 3.93621 5.92842 3.95829 5.94717C4.25412 6.18425 4.62912 6.318 5.01246 6.318C5.39579 6.318 5.77079 6.18425 6.06662 5.94259C6.08871 5.928 7.81954 4.53884 8.82454 3.7405C8.96121 3.63175 9.16204 3.72925 9.16246 3.903C9.16662 4.82342 9.16662 6.64175 9.16662 6.64175"
/>
<path
  d="M8.94833 2.364C8.5875 1.684 7.8775 1.24983 7.09583 1.24983H2.9375C2.15583 1.24983 1.44583 1.684 1.085 2.364C1.00417 2.51608 1.0425 2.70567 1.17708 2.81317L4.27083 5.28775C4.4875 5.46275 4.75 5.54983 5.0125 5.54983C5.01417 5.54983 5.01542 5.54983 5.01667 5.54983C5.01792 5.54983 5.01958 5.54983 5.02083 5.54983C5.28333 5.54983 5.54583 5.46275 5.7625 5.28775L8.85625 2.81317C8.99083 2.70567 9.02917 2.51608 8.94833 2.364"
 />

</svg>
