<svg viewBox="0 0 10 10"  xmlns="http://www.w3.org/2000/svg">
<path d="M7.91546 8.33333C4.36062 8.33837 1.6627 5.60813 1.66651 2.08438C1.66651 1.85427 1.85306 1.66667 2.08317 1.66667H3.18291C3.3894 1.66667 3.56481 1.81839 3.59513 2.02264C3.6678 2.51217 3.81033 2.98874 4.01837 3.4378L4.06119 3.53022C4.12072 3.65872 4.08037 3.8114 3.96512 3.8937C3.62455 4.13692 3.49439 4.62649 3.75971 5.00849C4.09266 5.48785 4.51236 5.90746 4.99162 6.24026C5.3736 6.50551 5.86309 6.37537 6.1063 6.03486C6.18866 5.91955 6.34142 5.87917 6.47 5.93873L6.562 5.98135C7.01108 6.18938 7.48769 6.33191 7.97727 6.40457C8.18152 6.43488 8.33317 6.61029 8.33317 6.81678V7.91666C8.33317 8.14678 8.14617 8.33333 7.91605 8.33333L7.91546 8.33333Z" />
</svg>
