<svg viewBox="0 0 8 8" xmlns="http://www.w3.org/2000/svg">
  <path
    d="M6.91558 7.33335C3.36074 7.33839 0.662827 4.60814 0.66663 1.0844C0.66663 0.854281 0.853178 0.666687 1.0833 0.666687H2.18303C2.38952 0.666687 2.56493 0.818408 2.59525 1.02266C2.66792 1.51219 2.81045 1.98876 3.01849 2.43781L3.06131 2.53023C3.12085 2.65873 3.08049 2.81141 2.96524 2.89372C2.62467 3.13693 2.49451 3.6265 2.75983 4.0085C3.09278 4.48787 3.51248 4.90748 3.99174 5.24028C4.37372 5.50553 4.86321 5.37539 5.10642 5.03487C5.18878 4.91956 5.34155 4.87919 5.47012 4.93875L5.56212 4.98136C6.0112 5.18939 6.48781 5.33193 6.97739 5.40458C7.18164 5.4349 7.33329 5.6103 7.33329 5.8168V6.91668C7.33329 7.1468 7.14629 7.33335 6.91617 7.33334L6.91558 7.33335Z"
  />
</svg>
