<svg viewBox="0 0 6 7" xmlns="http://www.w3.org/2000/svg">
  <path d="M3 5.75C2.68423 5.48066 2.39155 5.18538 2.125 4.86725C1.725 4.3895 1.25 3.678 1.25 3C1.24965 2.29188 1.67606 1.65334 2.33027 1.38235C2.98447 1.11135 3.73752 1.26131 4.238 1.76225C4.56712 2.0899 4.75148 2.53559 4.75001 3C4.75001 3.678 4.275 4.3895 3.875 4.86725C3.60845 5.18538 3.31577 5.48066 3 5.75ZM3 2.25C2.73205 2.25 2.48446 2.39295 2.35048 2.625C2.21651 2.85705 2.21651 3.14295 2.35048 3.375C2.48446 3.60705 2.73205 3.75 3 3.75C3.41421 3.75 3.75 3.41421 3.75 3C3.75 2.58578 3.41421 2.25 3 2.25Z" />
</svg>
