<svg
  viewBox="0 0 48 48"
  fill="none"
  xmlns="http://www.w3.org/2000/svg"
>
  <rect width="48" height="48" fill="url(#paint0_linear_1309_16)" />
  <path
    opacity="0.8"
    d="M12 20.3308C12 19.5208 12 19.1158 12.1251 18.7581C12.2357 18.4419 12.4162 18.1538 12.6535 17.9147C12.922 17.6443 13.2894 17.4629 14.0242 17.1001L23.1131 12.6129C24.8705 11.7453 25.7492 11.3115 26.4636 11.4151C27.0873 11.5056 27.6457 11.8455 28.0072 12.3546C28.4212 12.9377 28.4212 13.9063 28.4212 15.8436V27.6806C28.4212 28.4906 28.4212 28.8956 28.2961 29.2532C28.1855 29.5695 28.005 29.8576 27.7676 30.0967C27.4992 30.367 27.1318 30.5484 26.397 30.9112L17.3081 35.3984C15.5507 36.2661 14.6719 36.6999 13.9576 36.5962C13.3338 36.5057 12.7754 36.1659 12.414 35.6567C12 35.0736 12 34.105 12 32.1678V20.3308Z"
    fill="white"
  />
  <path
    opacity="0.6"
    d="M19.5788 20.3308C19.5788 19.5208 19.5788 19.1158 19.7039 18.7581C19.8145 18.4419 19.995 18.1538 20.2324 17.9147C20.5008 17.6443 20.8682 17.4629 21.603 17.1001L30.6919 12.6129C32.4493 11.7453 33.328 11.3115 34.0424 11.4151C34.6661 11.5056 35.2245 11.8455 35.586 12.3546C36 12.9377 36 13.9063 36 15.8436V27.6806C36 28.4906 36 28.8956 35.8749 29.2532C35.7643 29.5695 35.5838 29.8576 35.3465 30.0967C35.078 30.367 34.7106 30.5484 33.9758 30.9112L24.8869 35.3984C23.1295 36.2661 22.2508 36.6999 21.5364 36.5962C20.9126 36.5057 20.3543 36.1659 19.9928 35.6567C19.5788 35.0736 19.5788 34.105 19.5788 32.1678V20.3308Z"
    fill="white"
  />
  <defs>
    <linearGradient
      id="paint0_linear_1309_16"
      x1="48"
      y1="0"
      x2="-4.99891"
      y2="53.0011"
      gradientUnits="userSpaceOnUse"
    >
      <stop stop-color="#0BE2F4" />
      <stop offset="0.515625" stop-color="#3C97FF" />
      <stop offset="1" stop-color="#0077FF" />
    </linearGradient>
  </defs>
</svg>
