<svg viewBox="0 0 48 48" fill="none" xmlns="http://www.w3.org/2000/svg">
  <g clip-path="url(#clip0_1310_28)">
    <g filter="url(#filter0_f_1310_28)">
      <rect
        x="36.1316"
        y="77.6979"
        width="78.3601"
        height="73.4875"
        transform="rotate(-146.805 36.1316 77.6979)"
        fill="url(#paint0_linear_1310_28)"
      />
    </g>
    <g filter="url(#filter1_d_1310_28)">
      <path
        d="M9 21H10.899V26.1543H14.1995L13.5213 27.782H9V21ZM20.665 21.0904H22.4284L25.2316 27.6916H23.2874L22.7901 26.516H20.2581L19.806 27.6916H17.8618L20.665 21.0904ZM22.2475 25.1144L21.5241 23.2607L20.8007 25.1144H22.2475ZM28.4417 21H31.9232C32.7822 21 33.37 21.2261 33.7769 21.5878C34.0482 21.8591 34.229 22.2208 34.229 22.7181C34.229 23.4867 33.7769 23.9841 33.1891 24.2101C34.003 24.4814 34.5455 24.9336 34.5455 25.883C34.5455 27.0586 33.596 27.7368 31.9684 27.7368H28.4869V21H28.4417ZM31.471 23.7128C32.0588 23.7128 32.3753 23.5319 32.3753 23.125C32.3753 22.7633 32.104 22.5373 31.5162 22.5373H30.2955V23.7128H31.471ZM31.7423 26.2447C32.3301 26.2447 32.6466 26.0187 32.6466 25.6118C32.6466 25.2501 32.3753 25.024 31.7423 25.024H30.2955V26.29H31.7423V26.2447Z"
        fill="white"
      />
      <path
        d="M37.8254 23.9375H37.1905L38.3968 21.625V21.5H37V21H39.0635V21.625L37.8254 23.9375ZM42.8413 21V21.625L42.2698 22.0312V22.1563C42.6825 22.1875 43 22.4688 43 23C43 23.625 42.5238 24 41.8571 24C41.1905 24 40.7143 23.5937 40.7143 23.0312H41.3175C41.3492 23.3125 41.5397 23.4375 41.8254 23.4375C42.1429 23.4375 42.3651 23.25 42.3651 22.9687C42.3651 22.6875 42.1746 22.4688 41.8254 22.4688C41.6984 22.4688 41.6349 22.4687 41.5397 22.5V22.0312L42.1111 21.625V21.5H40.873V21H42.8413Z"
        fill="white"
      />
    </g>
  </g>
  <defs>
    <filter
      id="filter0_f_1310_28"
      x="-39.4407"
      y="-36.699"
      width="125.807"
      height="124.397"
      filterUnits="userSpaceOnUse"
      color-interpolation-filters="sRGB"
    >
      <feFlood flood-opacity="0" result="BackgroundImageFix" />
      <feBlend
        mode="normal"
        in="SourceGraphic"
        in2="BackgroundImageFix"
        result="shape"
      />
      <feGaussianBlur
        stdDeviation="5"
        result="effect1_foregroundBlur_1310_28"
      />
    </filter>
    <filter
      id="filter1_d_1310_28"
      x="5"
      y="21"
      width="42"
      height="14.782"
      filterUnits="userSpaceOnUse"
      color-interpolation-filters="sRGB"
    >
      <feFlood flood-opacity="0" result="BackgroundImageFix" />
      <feColorMatrix
        in="SourceAlpha"
        type="matrix"
        values="0 0 0 0 0 0 0 0 0 0 0 0 0 0 0 0 0 0 127 0"
        result="hardAlpha"
      />
      <feOffset dy="4" />
      <feGaussianBlur stdDeviation="2" />
      <feComposite in2="hardAlpha" operator="out" />
      <feColorMatrix
        type="matrix"
        values="0 0 0 0 0.239216 0 0 0 0 0.960784 0 0 0 0 0.780392 0 0 0 0.1 0"
      />
      <feBlend
        mode="normal"
        in2="BackgroundImageFix"
        result="effect1_dropShadow_1310_28"
      />
      <feBlend
        mode="normal"
        in="SourceGraphic"
        in2="effect1_dropShadow_1310_28"
        result="shape"
      />
    </filter>
    <linearGradient
      id="paint0_linear_1310_28"
      x1="75.3116"
      y1="77.6979"
      x2="75.3116"
      y2="151.185"
      gradientUnits="userSpaceOnUse"
    >
      <stop stop-color="#043A8A" />
      <stop offset="0.578125" stop-color="#2678F4" />
      <stop offset="1" stop-color="#47EBB4" />
    </linearGradient>
    <clipPath id="clip0_1310_28">
      <rect width="48" height="48" fill="white" />
    </clipPath>
  </defs>
</svg>
