<svg viewBox="0 0 68 78" xmlns="http://www.w3.org/2000/svg">
<path d="M18.5948 39.0091C16.1925 39.0091 13.8976 38.5208 11.7101 37.5442C9.5421 36.5677 7.6378 35.2103 5.99718 33.472C4.35655 31.7337 3.04796 29.7025 2.0714 27.3782C1.09483 25.054 0.606552 22.5345 0.606552 19.8196C0.606552 17.1439 1.09483 14.6341 2.0714 12.2903C3.04796 9.94659 4.35655 7.90558 5.99718 6.1673C7.6378 4.42902 9.5421 3.07159 11.7101 2.09503C13.8976 1.11847 16.1925 0.630188 18.5948 0.630188C20.6651 0.630188 22.5987 0.98175 24.3956 1.68488C26.212 2.36847 27.8038 3.2962 29.171 4.46808C30.5577 5.62042 31.7296 6.95831 32.6866 8.48175C33.6632 10.0052 34.3663 11.5872 34.796 13.2278H28.7901C28.4776 12.2708 28.0284 11.3333 27.4425 10.4153C26.8566 9.47784 26.1339 8.67706 25.2745 8.013C24.4151 7.32941 23.4288 6.78253 22.3155 6.37238C21.2023 5.94269 19.962 5.72785 18.5948 5.72785C17.0323 5.72785 15.5089 6.07941 14.0245 6.78253C12.5597 7.46613 11.2511 8.44268 10.0987 9.71221C8.96593 10.9622 8.04796 12.4466 7.34483 14.1653C6.64171 15.8841 6.29015 17.7689 6.29015 19.8196C6.29015 21.8509 6.64171 23.7259 7.34483 25.4446C8.04796 27.1634 8.96593 28.6575 10.0987 29.9271C11.2511 31.1771 12.5597 32.1536 14.0245 32.8567C15.5089 33.5599 17.0323 33.9114 18.5948 33.9114C20.0792 33.9114 21.4464 33.6673 22.6964 33.179C23.9659 32.6712 25.0792 31.9974 26.0362 31.1575C26.9933 30.3177 27.7843 29.3411 28.4093 28.2278C29.0343 27.095 29.464 25.8939 29.6983 24.6243H18.3019V19.2044H35.089V38.7161H30.8995L29.4054 35.1126C28.6046 35.8743 27.6573 36.5384 26.5636 37.1048C25.6456 37.5931 24.5397 38.0531 23.1651 38.4231C21.4276 38.891 20.3136 39.0091 18.5948 39.0091Z" />
<path d="M12.0023 71.9792C13.5648 71.9792 15.0785 71.6374 16.5434 70.9538C18.0277 70.2702 19.3363 69.3327 20.4691 68.1413C21.6215 66.9304 22.5492 65.5046 23.2523 63.8639C23.9555 62.2233 24.307 60.4265 24.307 58.4733C24.307 56.5202 23.9555 54.7233 23.2523 53.0827C22.5492 51.4421 21.6215 50.0261 20.4691 48.8347C19.3363 47.6237 18.0277 46.6765 16.5434 45.9929C15.0785 45.3093 13.5648 44.9675 12.0023 44.9675H6.28946V71.9792H12.0023ZM0.605865 77.3698V39.5768H12.0023C14.4047 39.5768 16.6898 40.0651 18.8578 41.0417C21.0453 42.0182 22.9594 43.3659 24.6 45.0847C26.2406 46.8034 27.5492 48.8054 28.5258 51.0905C29.5023 53.3757 29.9906 55.8366 29.9906 58.4733C29.9906 61.1101 29.5023 63.571 28.5258 65.8561C27.5492 68.1413 26.2406 70.1432 24.6 71.862C22.9594 73.5807 21.0453 74.9284 18.8578 75.905C16.6898 76.8815 14.4047 77.3698 12.0023 77.3698H0.605865Z" />
<path d="M49.4059 34.0872C50.9684 34.0872 52.482 33.7454 53.9469 33.0618C55.4313 32.3782 56.7399 31.4407 57.8727 30.2493C59.025 29.0384 59.9527 27.6126 60.6559 25.972C61.359 24.3314 61.7106 22.5345 61.7106 20.5814C61.7106 18.6282 61.359 16.8314 60.6559 15.1907C59.9527 13.5501 59.025 12.1341 57.8727 10.9427C56.7399 9.73175 55.4313 8.78448 53.9469 8.10089C52.482 7.4173 50.9684 7.0755 49.4059 7.0755H43.693V34.0872H49.4059ZM38.0094 39.4778V1.68488H49.4059C51.8082 1.68488 54.0934 2.17316 56.2613 3.14972C58.4488 4.12628 60.3629 5.47394 62.0035 7.19269C63.6441 8.91144 64.9527 10.9134 65.9293 13.1985C66.9059 15.4837 67.3941 17.9446 67.3941 20.5814C67.3941 23.2181 66.9059 25.679 65.9293 27.9642C64.9527 30.2493 63.6441 32.2513 62.0035 33.97C60.3629 35.6888 58.4488 37.0364 56.2613 38.013C54.0934 38.9896 51.8082 39.4778 49.4059 39.4778H38.0094Z" />
</svg>
